<svg xmlns="http://www.w3.org/2000/svg" viewBox="0 0 75.85 96.21"><defs><style>.cls-1{fill:#fff;}</style></defs><title>Fichier 1</title><g id="Calque_2" data-name="Calque 2"><g id="PAGE_1" data-name="PAGE 1"><path class="cls-1" d="M0,37.08a5.14,5.14,0,0,0,.16-1.51c.12-1.82.38-3.62.6-5.43.05-.38.26-.4.56-.4H46.26c.32,0,.49.07.54.43.16,1.19.32,2.38.45,3.58a71,71,0,0,1,.3,9.89,64.46,64.46,0,0,1-.63,7.07,61.15,61.15,0,0,1-2,9,52.3,52.3,0,0,1-1.78,5,33,33,0,0,1-1.42,3.14c-.63,1.16-1.26,2.31-2,3.41a36.86,36.86,0,0,1-2.26,3.15,22.3,22.3,0,0,1-6.13,5.31,15.05,15.05,0,0,1-6.14,2h-.37V74.16a6.74,6.74,0,0,0,4.36-2.4,20.58,20.58,0,0,0,4-8.51c.35-1.33.5-2.7.73-4a6.83,6.83,0,0,1,1.62-3.63,3,3,0,0,1,1.5-.87c.12,0,.27,0,.36-.17a7.36,7.36,0,0,0-2.63-2.26,1.11,1.11,0,0,0-.51-.1,6.37,6.37,0,0,0-5.39,2.42,13.39,13.39,0,0,0-2.06,3.88,35.19,35.19,0,0,1-1.37,3.58,1.41,1.41,0,0,1-.74.82,2.5,2.5,0,0,1-.1-1,25.66,25.66,0,0,1,.89-6.76,12.68,12.68,0,0,1,1-2.58c.27-.5.54-1,.85-1.46a7.3,7.3,0,0,1,3.18-2.66l.27-.13.08-.07a2.29,2.29,0,0,0-1.39-.09A8.13,8.13,0,0,0,25,50.08s-.08,0-.12,0a.8.8,0,0,1-.1-.5V47.77a8.15,8.15,0,0,0,2.55-.31,3.1,3.1,0,0,0,2.13-2.17,24.51,24.51,0,0,0,.55-3.08,12.89,12.89,0,0,1,2.06-4.78,1.42,1.42,0,0,0,.11-.18.53.53,0,0,0-.56-.15,16.69,16.69,0,0,0-6.2,2.38,2.94,2.94,0,0,0-.9.78c-.1.17-.25.25-.42.08a9.67,9.67,0,0,0-3.31-2A19.5,19.5,0,0,0,16.75,37a.75.75,0,0,0-.55,0c0,.29.2.5.3.74a18.26,18.26,0,0,1,1.27,4.41,14.29,14.29,0,0,0,.94,3.56,3.46,3.46,0,0,0,3.32,2c.39,0,.77,0,1.17,0V62.62c-.14,0-.21,0-.23-.08a16.15,16.15,0,0,0-5.19-6.78,9.79,9.79,0,0,0-3.71-2,5.65,5.65,0,0,0-2.52-.07,1.91,1.91,0,0,0-.31.14c.3.39.6.75.88,1.12a9.62,9.62,0,0,1,2.08,5.51,17.91,17.91,0,0,0,2.1,7.84A11.79,11.79,0,0,0,21,73.35,4.88,4.88,0,0,0,23,74c.22,0,.33.08.33.33,0,2.47,0,4.93,0,7.43a5.15,5.15,0,0,1-1.47,0,17.11,17.11,0,0,1-9.06-4.43,27.77,27.77,0,0,1-4.28-4.9,40.64,40.64,0,0,1-3-5.2c-.74-1.49-1.36-3-1.95-4.59-.36-1-.65-2-1-3A53.59,53.59,0,0,1,.91,52.41a52.82,52.82,0,0,1-.79-7.1c0-.05,0-.11,0-.16l0-.89c0-.13,0-.26-.17-.28Z"/><path class="cls-1" d="M24.73,96.21c-1.62-1.48-1.44-3.42-1.34-5.33a4.12,4.12,0,0,1,.53-1.8,2.1,2.1,0,0,1,.54-.61,1.17,1.17,0,0,1,1.62.15l.45.55v-3.5a2.53,2.53,0,0,1,.82,0V96a1.74,1.74,0,0,1-.68,0c-.14-.15,0-.35-.15-.54l-.67.73Zm1.82-3.92a6.59,6.59,0,0,0-.38-2.21A.85.85,0,0,0,24.56,90a1.91,1.91,0,0,0-.23.6,7.69,7.69,0,0,0,0,3.24,2.11,2.11,0,0,0,.43,1,.72.72,0,0,0,1.06.11,1.53,1.53,0,0,0,.45-.62A5.05,5.05,0,0,0,26.55,92.29Z"/><path class="cls-1" d="M47.4,96.21A3.77,3.77,0,0,1,46,93.06a7.14,7.14,0,0,1,.59-3.78,1.83,1.83,0,0,1,.88-.9,1.44,1.44,0,0,1,1.87.48A5.47,5.47,0,0,1,50,91.41a8.61,8.61,0,0,1,0,1.25H46.82a3.18,3.18,0,0,0,.4,1.93.94.94,0,0,0,1.64,0,2.67,2.67,0,0,0,.37-1,2.94,2.94,0,0,1,.72,0,2.73,2.73,0,0,1-1.43,2.6Zm-.59-4.63h2.42a3.2,3.2,0,0,0-.42-1.71.83.83,0,0,0-1.43-.08A2.74,2.74,0,0,0,46.81,91.58Z"/><path class="cls-1" d="M63.09,96.21a3.33,3.33,0,0,1-1.49-2.53A6.65,6.65,0,0,1,62.26,89a1.53,1.53,0,0,1,2.67,0,4.09,4.09,0,0,1,.61,1.46,7.84,7.84,0,0,1-.2,4.24,2.37,2.37,0,0,1-1.06,1.4s-.1.06-.07.14Zm-.76-3.92a4.9,4.9,0,0,0,.43,2.15.88.88,0,0,0,1.69,0,5.62,5.62,0,0,0,0-4.3.92.92,0,0,0-.92-.72c-.47,0-.69.35-.87.73A5.37,5.37,0,0,0,62.33,92.29Z"/><path class="cls-1" d="M73,96.21c-.9-.22-1.49-1-1.45-2.6a1.49,1.49,0,0,1,.73,0c.06.25.1.51.17.75a1,1,0,0,0,1.11.75,1.09,1.09,0,0,0,.38-2,10.86,10.86,0,0,0-1.11-.47A1.66,1.66,0,0,1,71.7,91a3.73,3.73,0,0,1,.22-1.69,1.63,1.63,0,0,1,1.54-1,1.54,1.54,0,0,1,1.46,1.08,2.61,2.61,0,0,1,.22,1.3,1.84,1.84,0,0,1-.74,0c0-.17-.06-.34-.1-.5a.89.89,0,0,0-1-.71.79.79,0,0,0-.81.63.91.91,0,0,0,.36,1.16,8.81,8.81,0,0,0,1.18.52,1.84,1.84,0,0,1,1.24,1.75,3.77,3.77,0,0,1-.42,2c-.19.33-.55.47-.78.75Z"/><path class="cls-1" d="M30.68,96.21a1.77,1.77,0,0,1-1-1.5c-.2-2.06,0-4.13-.1-6.2a2.16,2.16,0,0,1,.79-.05c.12.15.06.32.06.47,0,1.52,0,3,0,4.56a2.74,2.74,0,0,0,.18,1.1.73.73,0,0,0,1.26.21,2.4,2.4,0,0,0,.54-1.42,27.49,27.49,0,0,0,.06-3c0-.62,0-1.24,0-1.86a2.31,2.31,0,0,1,.79-.06V96a2.06,2.06,0,0,1-.7,0c-.11-.25,0-.5-.11-.84a1.81,1.81,0,0,1-.91,1Z"/><path class="cls-1" d="M57.4,96.21A3.11,3.11,0,0,1,56,93.89a7.64,7.64,0,0,1,.49-4.62,1.79,1.79,0,0,1,1.09-1,1.4,1.4,0,0,1,1.68.63,4.18,4.18,0,0,1,.53,2,1.52,1.52,0,0,1-.76,0,9.26,9.26,0,0,0-.26-.94c-.16-.32-.36-.6-.76-.61a.85.85,0,0,0-.82.53,5.94,5.94,0,0,0-.4,3.12,3.45,3.45,0,0,0,.37,1.44.86.86,0,0,0,.74.52.77.77,0,0,0,.73-.5,4.55,4.55,0,0,0,.27-.73c.16-.62.15-.62.88-.48a3.39,3.39,0,0,1-1.3,2.86Z"/><path class="cls-1" d="M0,44c.18,0,.17.15.17.28l0,.89c-.1-.08,0-.24-.14-.31Z"/><path class="cls-1" d="M46.48,28.71H1.16a2.07,2.07,0,0,1,.08-1c.29-1.36.61-2.71,1-4.06a49.61,49.61,0,0,1,2.63-7.52,35,35,0,0,1,1.66-3.43c.62-1.09,1.27-2.16,2-3.19a27.15,27.15,0,0,1,5.59-6A15.87,15.87,0,0,1,22.26.08a14.28,14.28,0,0,1,6.31.73A20.3,20.3,0,0,1,36.9,6.73,23.76,23.76,0,0,1,38.74,9a38.65,38.65,0,0,1,2.59,4.21,48.3,48.3,0,0,1,2.49,5.54,55.51,55.51,0,0,1,1.72,5.54c.28,1.11.51,2.23.78,3.34C46.4,28,46.42,28.33,46.48,28.71Zm-31.74-20c-.18.11-.38,0-.57.09,0-.09,0-.17-.06-.19-.22-.13-.41-.28-.3-.59a.16.16,0,0,0-.22-.11c-.28.1-.57.16-.85.26a1,1,0,0,0-.61.38,1.25,1.25,0,0,1,.38.7c0,.09.05.2.15.2s.29.19.35.36a3.16,3.16,0,0,0,.51.76A3.41,3.41,0,0,1,14,11.72c-1.37.1-2.69-.24-4,.17a1.64,1.64,0,0,0,.15.93c.09.2.29.36.51.24a4.61,4.61,0,0,1,2.17-.25,4.76,4.76,0,0,1,2.2.32c.22.1.38.19.41.42a.66.66,0,0,1-.29.66,4.52,4.52,0,0,0-1.06.89,5.7,5.7,0,0,1-.73.82c-.51.46-.91,1-1.41,1.5a3.57,3.57,0,0,0,1.88.93c.09-.55.76-.75.69-1.37.3.07.17.33.33.45.09-.28.26-.53.35-.76a3.3,3.3,0,0,0,.37-1.15c0-.27.17-.31.37-.32s.2.16.19.31a.61.61,0,0,0,.18.41,1.1,1.1,0,0,1,0,1.41c.13.67-.05,1.37.32,2,.35.13.64-.22,1-.14a2.09,2.09,0,0,1-.24-1,1.12,1.12,0,0,0-.35-1c-.23-.18-.17-.31.09-.42.45-.19.46-.24.08-.52.2-.37.46-.28.76-.11A7.63,7.63,0,0,1,19,17c.27.22.49.39.42.75a1.53,1.53,0,0,1,.95,1.11c.58.5,1,.19,1.51-.16a.73.73,0,0,1-.24-.54c0-.07,0-.23-.17-.11h0c-.27.07-.19-.35-.44-.31s-.39-.23-.48-.46a4,4,0,0,0-.68-1.19c-.29-.33-.71-.47-1-.77a2.48,2.48,0,0,1-.19-1.77l.1-.08a1.09,1.09,0,0,1,1.15-.24,3.26,3.26,0,0,0,.86.25c.57,0,1.15-.05,1.54.5a.15.15,0,0,0,.16,0c.38-.21.5.09.67.32,0,0,0,0,.08,0s.13-.19.21-.19c.31.13.36.3.13.57.27,0,.5.1.58-.23,0-.14.21-.13.29-.07a1.47,1.47,0,0,0,.93.23,2.65,2.65,0,0,0-.07-1.13,27.39,27.39,0,0,0-4.4-1.4c0-.3-.06-.54.37-.5.23,0,.36-.19.37-.44s.16-.39.4-.53.89-.15,1.07-.67A.69.69,0,0,0,23,9.31a1.22,1.22,0,0,0-.72-.49c-.08,0-.12.08-.17.1-.49.2-.79.76-1.38.78-.05,0-.09.07-.13.1a3,3,0,0,1-1.13.69,1.46,1.46,0,0,0-.82.54,3.77,3.77,0,0,1-.49.42c-.41-.54-.4-.7,0-1.07-.06-.07-.17-.17-.16-.19.13-.19,0-.28-.09-.42s.07-.55.29-.47c.37.15.4-.07.43-.33s0-.36,0-.55c.32.15.33-.33.6-.22-.07-.42.24-.71.24-1.1s-.13-.4-.37-.43-.68-.08-1-.11c0,.11-.11.21,0,.32s0,.33-.05.56c-.2.45-.58.82-.55,1.41a2.2,2.2,0,0,1-.31,1.38c-.1.15-.28.33-.26.46.08.48-.28.77-.41,1.2-.58-.39-1.2-.67-1.22-1.53,0,0,.23-.08.16-.3-.19,0-.27.32-.57.19A1.2,1.2,0,0,0,14.73,9a.3.3,0,0,1,0-.29h0Z"/><path class="cls-1" d="M52.43,58.7h-1V46.77c1.2,0,2.4-.07,3.6,0a1.73,1.73,0,0,1,1.4,1.31,5.76,5.76,0,0,1-.11,4.41,1.82,1.82,0,0,1-1.87,1.18c-.66,0-1.32,0-2,0Zm0-6.46c.7,0,1.34,0,2,0a1.15,1.15,0,0,0,1.1-.82,3.71,3.71,0,0,0,.06-2.33,1.1,1.1,0,0,0-.88-.85,15.62,15.62,0,0,0-2.27-.05Z"/><path class="cls-1" d="M64.2,57.61v.58c0,.27.07.56-.31.65a.85.85,0,0,1-1-.37,2.89,2.89,0,0,1-.2-.67c-.16,0-.19.2-.27.3a1.79,1.79,0,0,1-1.85.83,1.67,1.67,0,0,1-1.26-1.44,4.35,4.35,0,0,1,.13-2.62,1.79,1.79,0,0,1,1.43-1.23l1.26-.26a.43.43,0,0,0,.34-.16,1.81,1.81,0,0,0,.07-1.54,1,1,0,0,0-.92-.66,1.05,1.05,0,0,0-1.18.89c-.06.23-.09.48-.14.74a2.39,2.39,0,0,1-.8,0,2.44,2.44,0,0,1,1.62-2.89,2,2,0,0,1,2.45,2c0,1.61,0,3.22,0,4.82v.48C63.62,57.47,63.72,57.72,64.2,57.61Zm-1.54-3.19a6.79,6.79,0,0,1-1.41.42,1.21,1.21,0,0,0-1,.85,2.26,2.26,0,0,0,.07,1.43.8.8,0,0,0,1,.52,1.8,1.8,0,0,0,1.26-1.54A7.2,7.2,0,0,0,62.66,54.42Z"/><path class="cls-1" d="M44.22,85.69a13.18,13.18,0,0,1-.34,1.75c-.58,2.65-1.15,5.3-1.73,8-.15.68-.15.68-.87.64L41,96,38.79,85.71c.2-.13.39-.06.57-.08s.45.05.51.39c.49,2.51,1,5,1.5,7.51,0,.15.07.3.11.49.21-.17.19-.39.23-.57l1.41-7.17C43.27,85.55,43.32,85.53,44.22,85.69Z"/><path class="cls-1" d="M75,55.6h.86a4.3,4.3,0,0,1-.93,2.84,1.68,1.68,0,0,1-2.62-.21,4.36,4.36,0,0,1-.82-2.1A9,9,0,0,1,72.05,51a2.17,2.17,0,0,1,1-1.08,1.59,1.59,0,0,1,2,.42,4,4,0,0,1,.73,2.6H75a9,9,0,0,0-.22-.93c-.18-.56-.55-.9-1-.89a1.13,1.13,0,0,0-1,.77,3.8,3.8,0,0,0-.34,1.28,9.1,9.1,0,0,0,.13,3.25,3,3,0,0,0,.22.56,1,1,0,0,0,.94.65,1,1,0,0,0,.84-.65A5.07,5.07,0,0,0,75,55.6Z"/><path class="cls-1" d="M51.23,80.54h.54c.11.1.1.24.14.35.12.28.27.51.61.54A.81.81,0,0,0,53.3,81a2.4,2.4,0,0,0,.18-1.38,1.1,1.1,0,0,1-1.27.33,1.31,1.31,0,0,1-.66-.69,5.62,5.62,0,0,1-.46-2.68,5.18,5.18,0,0,1,.45-2.12,1.07,1.07,0,0,1,1.85-.1.52.52,0,0,0,.1.11c.15-.11,0-.29.16-.4a1,1,0,0,1,.49,0s0,.05,0,.08c0,2.06.07,4.13,0,6.19a3.24,3.24,0,0,1-.21,1,1.38,1.38,0,0,1-1.48,1,1.33,1.33,0,0,1-1.19-1.23A1.19,1.19,0,0,1,51.23,80.54Zm2.34-3.42a5.16,5.16,0,0,0-.25-1.74c-.13-.3-.3-.57-.68-.56a.72.72,0,0,0-.68.57,5.15,5.15,0,0,0,.06,3.2.69.69,0,0,0,.61.54c.35,0,.53-.24.68-.52A3.43,3.43,0,0,0,53.57,77.12Z"/><path class="cls-1" d="M67.74,50v.86l.08,0c.09-.15.19-.29.27-.44a1.41,1.41,0,0,1,.51-.57c.22-.13.47-.29.73-.15s.1.39.12.59,0,.63,0,.95a.79.79,0,0,1-.22.07,1.19,1.19,0,0,0-1.17.85,4.18,4.18,0,0,0-.29,1.64v4.84h-.88c-.12-.15-.07-.33-.07-.49V50.66C66.82,49.87,66.86,49.84,67.74,50Z"/><path class="cls-1" d="M70.06,75.84h-.51a2.22,2.22,0,0,1,.11-1.11,1.27,1.27,0,0,1,1.43-.85,1.23,1.23,0,0,1,1.12,1,3.7,3.7,0,0,1,.08.94c0,.94,0,1.89,0,2.84,0,.27,0,.49.39.48-.1.29.22.69-.27.81s-.58-.1-.74-.58c-.17,0-.2.14-.28.22a1.07,1.07,0,0,1-1.91-.34,2.81,2.81,0,0,1,0-2,1.15,1.15,0,0,1,.87-.76c.21,0,.42-.07.63-.12s.53-.05.59-.39a1.07,1.07,0,0,0-.19-1,.7.7,0,0,0-1.17.21A6.83,6.83,0,0,0,70.06,75.84Zm1.56,1.22-.88.24A.87.87,0,0,0,70,78.4c0,.34.1.69.51.75a.87.87,0,0,0,.84-.47C71.72,78.2,71.61,77.66,71.62,77.06Z"/><path class="cls-1" d="M72.59,66.73H70.11a2.37,2.37,0,0,0,.22,1.33.72.72,0,0,0,1.31.12,2.29,2.29,0,0,0,.3-.72,1.19,1.19,0,0,1,.62,0,2.53,2.53,0,0,1-.72,1.69,1.26,1.26,0,0,1-2-.47,5.57,5.57,0,0,1,0-4.59,1.23,1.23,0,0,1,1.3-.81,1.25,1.25,0,0,1,1.08.92A5.89,5.89,0,0,1,72.59,66.73Zm-.69-.91a2,2,0,0,0-.21-1.11.7.7,0,0,0-1.27-.13,2.61,2.61,0,0,0-.35,1.24A7,7,0,0,0,71.9,65.82Z"/><path class="cls-1" d="M49.18,77.33H46.67a2.87,2.87,0,0,0,.18,1.18.82.82,0,0,0,.74.62.78.78,0,0,0,.73-.57c.08-.17.14-.34.21-.52a1,1,0,0,1,.54,0,1.67,1.67,0,0,1-1.75,2,1.2,1.2,0,0,1-.92-.76,5.56,5.56,0,0,1,.09-4.67,1.23,1.23,0,0,1,2.28.1A6.57,6.57,0,0,1,49.18,77.33Zm-.71-.89a2,2,0,0,0-.28-1.27.62.62,0,0,0-1.1-.06,2,2,0,0,0-.42,1.33Z"/><path class="cls-1" d="M53,65.27h-.56A1.89,1.89,0,0,1,53,63.55a1.35,1.35,0,0,1,2,.52,2.76,2.76,0,0,1,.18,1q0,1.53,0,3.06c0,.25,0,.53.39.47-.09.31.19.7-.24.82s-.68-.17-.78-.69a5.24,5.24,0,0,1-.43.5,1,1,0,0,1-1.68-.36,2.77,2.77,0,0,1,.07-2.37.83.83,0,0,1,.67-.48c.32,0,.61-.18.94-.2a.37.37,0,0,0,.37-.43c0-.27.07-.56-.07-.81a.69.69,0,0,0-.74-.36.65.65,0,0,0-.58.54C53,64.89,53,65.08,53,65.27Zm1.53,1.2-.56.16a1.48,1.48,0,0,0-.83.33A1.2,1.2,0,0,0,53,68.21a.49.49,0,0,0,.52.37,1.06,1.06,0,0,0,.87-.67A3.27,3.27,0,0,0,54.5,66.47Z"/><path class="cls-1" d="M62.38,77a4.67,4.67,0,0,1-.61,2.41,1.19,1.19,0,0,1-2.11,0,4.35,4.35,0,0,1-.59-2.56,4.23,4.23,0,0,1,.59-2.35,1.2,1.2,0,0,1,2.1,0A4.79,4.79,0,0,1,62.38,77Zm-2.65,0a3.91,3.91,0,0,0,.35,1.71.72.72,0,0,0,.61.47.73.73,0,0,0,.67-.47,2.92,2.92,0,0,0,.31-1.2,4.17,4.17,0,0,0-.32-2.23.7.7,0,0,0-.64-.44.69.69,0,0,0-.63.44A4.37,4.37,0,0,0,59.73,76.94Z"/><path class="cls-1" d="M65.05,79.86h-.64V74.08a1,1,0,0,1,.57,0l0,.39a.12.12,0,0,0,.16-.07,1,1,0,0,1,1.1-.49,1,1,0,0,1,.8.84,3.82,3.82,0,0,1,.2,1.16c0,1.19,0,2.39,0,3.58,0,.25,0,.44-.35.46s-.31-.25-.31-.47V76.23a3,3,0,0,0-.13-1,.58.58,0,0,0-1-.17,1.79,1.79,0,0,0-.37,1.08c0,1.07,0,2.13,0,3.19Z"/><path class="cls-1" d="M63,63.47a1.47,1.47,0,0,1,.63,0v5.78a.94.94,0,0,1-.52,0c-.15-.1,0-.28-.17-.42a1.3,1.3,0,0,1-.93.61.74.74,0,0,1-.77-.28,1.6,1.6,0,0,1-.39-.94c0-1.59,0-3.18,0-4.79h.55c.12.15.07.31.07.46,0,1.15,0,2.3,0,3.44a2.67,2.67,0,0,0,.07.64.58.58,0,0,0,.5.52.64.64,0,0,0,.66-.39,2.8,2.8,0,0,0,.3-1.37v-3.3Z"/><path class="cls-1" d="M68.6,96h-.73V88.48a2.17,2.17,0,0,1,.72,0l.07.76c.46-.41.61-1.15,1.41-1v1.36a1.37,1.37,0,0,0-1.34,1.31,7,7,0,0,0-.06,1.37c0,1.06,0,2.12,0,3.19A1.06,1.06,0,0,1,68.6,96Z"/><path class="cls-1" d="M47.3,63.47c.25,0,.46-.1.64.12s.25,0,.38,0A1,1,0,0,1,50,64a2.35,2.35,0,0,1,.19.79c0,1.47,0,3,0,4.42a.71.71,0,0,1-.55.06c-.13-.15-.07-.33-.07-.5l0-3.52a1.17,1.17,0,0,0-.19-.69c-.31-.44-.75-.47-1,0a2.65,2.65,0,0,0-.35,1.49c0,1.06,0,2.12,0,3.18a.94.94,0,0,1-.62,0Z"/><path class="cls-1" d="M54.51,89.61a1.29,1.29,0,0,0-1.32,1.14,3.73,3.73,0,0,0-.12.94V96a2.61,2.61,0,0,1-.79,0V88.48a2.2,2.2,0,0,1,.68,0c.12.26,0,.54.1.88l.29-.48a1.38,1.38,0,0,1,.46-.5.62.62,0,0,1,.57-.12c.21.09.12.32.13.5S54.51,89.31,54.51,89.61Z"/><path class="cls-1" d="M58.84,68.5a2.3,2.3,0,0,1,0,.74c-.77.28-1.16,0-1.19-.85s0-1.6,0-2.41V64.42c-.13-.16-.3,0-.44-.15a2,2,0,0,1,0-.74c.11-.14.29,0,.44-.15V61.93a.86.86,0,0,1,.67,0v1.53l.54.06v.78c-.14.12-.34,0-.54.13v3.49C58.31,68.37,58.34,68.41,58.84,68.5Z"/><path class="cls-1" d="M74.66,71.93a1.3,1.3,0,0,1,.62,0v7.89a.78.78,0,0,1-.62,0Z"/><path class="cls-1" d="M32.06,54.21a1.25,1.25,0,0,1,1.32-1.27,1.28,1.28,0,0,1,1.26,1.3,1.29,1.29,0,1,1-2.58,0Z"/><path class="cls-1" d="M44.31,73.9a5,5,0,0,1,0,1,1.18,1.18,0,0,0-1.06,1.29c0,1,0,2.07,0,3.1v.5a.86.86,0,0,1-.63,0V74.07a1,1,0,0,1,.55,0c.1.17,0,.35.08.55C43.5,74.25,43.69,73.76,44.31,73.9Z"/><path class="cls-1" d="M66,63.44a1.29,1.29,0,0,1,.56.06l.06.59c.26-.4.44-.9,1.09-.78v1a1.12,1.12,0,0,0-1,1.23c0,1,0,2.06,0,3.09v.59a1.19,1.19,0,0,1-.62.05Z"/><path class="cls-1" d="M75.31,69.28h-.59V61.35a1,1,0,0,1,.59,0Z"/><path class="cls-1" d="M57,79.84a1,1,0,0,1-.57,0c-.1-.08-.07-.19-.07-.29v-5c0-.44.14-.57.48-.47a.25.25,0,0,1,.21.27c0,1.81,0,3.61,0,5.42A.2.2,0,0,1,57,79.84Z"/><path class="cls-1" d="M47.25,73.27a13.63,13.63,0,0,1,.55-1.43c.16-.3.51-.07.86-.17-.32.59-.57,1.08-.85,1.55C47.7,73.41,47.49,73.35,47.25,73.27Z"/><path class="cls-1" d="M56.38,71.93a1.07,1.07,0,0,1,.64,0A4.69,4.69,0,0,1,57,73a.88.88,0,0,1-.64,0A4.86,4.86,0,0,1,56.38,71.93Z"/><path class="cls-1" d="M24.82,47.77v1.84a.8.8,0,0,0,.1.5c-.09.11-.19.11-.19,0a18.94,18.94,0,0,1,0-2.26S24.8,47.79,24.82,47.77Z"/><polygon class="cls-1" points="14.74 8.73 14.75 8.72 14.73 8.73 14.74 8.73"/><path class="cls-1" d="M21.46,18c.21.14.06.27,0,.44-.15-.18,0-.31,0-.44Z"/><polygon class="cls-1" points="22.69 13.78 22.71 13.76 22.71 13.79 22.69 13.78"/></g></g></svg>